# xmcd CD database file
#
# Track frame offsets:
#	150
#	13912
#	27004
#	39251
#	57551
#	71015
#	83450
#	99709
#	114334
#	129531
#	144598
#	158360
#	171452
#	183699
#	201999
#	215463
#	227898
#	244157
#	258782
#	273979
#	289046
#	302808
#	315055
#	327490
#	342687
#
# Disc length: 4768 seconds
#
# Revision: 0
# Processed by: cddbd v1.4PL0 Copyright (c) Steve Scherf et al.
# Submitted via: CDex 1.50
#
DISCID=6c129e19
DTITLE=John Anderson - Solid Ground  ~Zetroc Tunes Edition~
DYEAR=2003
DGENRE=Country
TTITLE0=Money In The Bank
TTITLE1=I've Got It Made
TTITLE2=I Fell In The Water
TTITLE3=Bad Love Gone Good
TTITLE4=All Things To All Things
TTITLE5=Where I Come From
TTITLE6=I Wish I Could Have Been There
TTITLE7=Nashville Tears
TTITLE8=Can't Get Away From You
TTITLE9=Soild Ground
TTITLE10=Money In The Bank
TTITLE11=I've Got It Made
TTITLE12=I Fell In The Water
TTITLE13=Bad Love Gone Good
TTITLE14=All Things To All Things
TTITLE15=Where I Come From
TTITLE16=I Wish I Could Have Been There
TTITLE17=Nashville Tears
TTITLE18=Can't Get Away From You
TTITLE19=Soild Ground
TTITLE20=Money In The Bank
TTITLE21=I Fell In The Water
TTITLE22=Where I Come From
TTITLE23=Can't Get Away From You
TTITLE24=Soild Ground
EXTD=YEAR: 2003
EXTT0=
EXTT1=
EXTT2=
EXTT3=
EXTT4=
EXTT5=
EXTT6=
EXTT7=
EXTT8=
EXTT9=
EXTT10=
EXTT11=
EXTT12=
EXTT13=
EXTT14=
EXTT15=
EXTT16=
EXTT17=
EXTT18=
EXTT19=
EXTT20=
EXTT21=
EXTT22=
EXTT23=
EXTT24=
PLAYORDER=
